<svg id="Layer_1" data-name="Layer 1" xmlns="http://www.w3.org/2000/svg" xmlns:xlink="http://www.w3.org/1999/xlink" width="512" height="512" viewBox="0 0 512 512"><defs><style>.cls-1{fill:none;}.cls-2{fill:url(#GradientFill_1);}.cls-3{clip-path:url(#clip-path);}.cls-4{fill:#e5e5e5;}.cls-11,.cls-12,.cls-13,.cls-4,.cls-5,.cls-6,.cls-7,.cls-8,.cls-9{fill-rule:evenodd;}.cls-5{fill:url(#GradientFill_2);}.cls-10,.cls-6{fill:#fff;}.cls-7{fill:url(#GradientFill_3);}.cls-8{fill:url(#GradientFill_4);}.cls-9{fill:#2d2d2d;}.cls-11{fill:#e4d2ce;}.cls-12{fill:#ed2120;}.cls-13{fill:url(#GradientFill_5);}</style><linearGradient id="GradientFill_1" x1="223.26" y1="270.48" x2="424.18" y2="181.59" gradientTransform="translate(256 -106.04) rotate(45)" gradientUnits="userSpaceOnUse"><stop offset="0" stop-color="#ee2624"/><stop offset="1" stop-color="#ef4423"/></linearGradient><clipPath id="clip-path"><circle class="cls-1" cx="256" cy="256" r="256" transform="translate(-106.04 256) rotate(-45)"/></clipPath><linearGradient id="GradientFill_2" x1="178.05" y1="203.37" x2="135.72" y2="177.03" gradientUnits="userSpaceOnUse"><stop offset="0" stop-color="#f3e2e2"/><stop offset="1" stop-color="#fff"/></linearGradient><linearGradient id="GradientFill_3" x1="117.04" y1="167.07" x2="130.92" y2="209.17" gradientUnits="userSpaceOnUse"><stop offset="0" stop-color="#ddc9c7"/><stop offset="1" stop-color="#fff"/></linearGradient><linearGradient id="GradientFill_4" x1="266.09" y1="376.75" x2="338.78" y2="377.92" gradientUnits="userSpaceOnUse"><stop offset="0" stop-color="#ee2530"/><stop offset="1" stop-color="#b0282e"/></linearGradient><linearGradient id="GradientFill_5" x1="357.37" y1="287.51" x2="317.47" y2="297.13" gradientUnits="userSpaceOnUse"><stop offset="0" stop-color="#f15648"/><stop offset="1" stop-color="#ef374d"/></linearGradient></defs><circle class="cls-2" cx="256" cy="256" r="256" transform="translate(-106.04 256) rotate(-45)"/><g class="cls-3"><path class="cls-4" d="M339.63,459.39l-18.69-69.93c29.28-9.94,57.48-25.62,84.41-48.06,24-24,67.58,10.71,31.36,53C422.67,411.31,387.82,438.73,339.63,459.39Z"/><path class="cls-5" d="M281.94,181.41l7.62-62.13q-.3-20.81-.59-41.62c.22-10.26-5.13-21.6-28.14-16.41C165,84,116.64,139.57,109,220.1c1.48,98.69,55.16,113.09,60.38,183.46l44.54-.58Z"/><path class="cls-6" d="M357.86,494.05c-.31-47.59-9.27-91.93-34.59-130.13C442,332.91,484.05,171.6,356.1,117.74c-58.38-24-140.43-2-183.47,48.65L111.09,140C96,133.89,91,143.06,93.5,161c3.53,33.07,17.94,50.62,41,63.37,6.83,4.06,6.65,5.35,7.11,15.17.1,41.42,6.35,51.92,29.3,99.21,9.08,18.61,13.2,33,14.07,44.54-34.48-24.42-52.85-41.52-74.44-64.47-34.06-40.65-80.92,17.3-49.24,57.44,29,33.38,61.84,64.93,114.3,87.33l-11.13,39.28C230.74,525,296.24,536.12,357.86,494.05Z"/><path class="cls-7" d="M93.78,145.57c-1.1,3.85-1.15,9.08-.28,15.4,3.48,32.59,17.52,50.11,40,62.81,5.85-6,11.34-12.43,15.52-20.35,2.71-6.29,1.42-13-4.1-17.22C127.27,172,111.15,159.5,93.78,145.57Z"/><path class="cls-8" d="M332.55,379.53q-4.23-8-9.28-15.61c-28.29,4.62-64,6.33-89.33-1.75-6.32-2-9.73-3.4-14.91-1.91-19.18,7.82-33.68,15.19-34.09,23l12.07,8.8C247.91,372.54,299.35,375.43,332.55,379.53Z"/><path class="cls-9" d="M216,171.15c14.16,0,24.41,14.44,22.89,32.24s-14.24,32.24-28.4,32.24-24.41-14.43-22.89-32.24S201.85,171.15,216,171.15Z"/><circle class="cls-10" cx="205.08" cy="194.38" r="6.23"/><path class="cls-11" d="M368.78,210.26c2.26,1.26,3.44,4.59,2.64,7.42s-3.29,4.09-5.54,2.83-3.44-4.59-2.64-7.42,3.28-4.1,5.54-2.83Zm25.9.1c2.26,1.26,3.44,4.58,2.64,7.42s-3.29,4.09-5.54,2.83-3.44-4.59-2.64-7.42S392.42,209.09,394.68,210.36Z"/><path class="cls-12" d="M363.92,312.93c-38.53,4.29-57.8-14.55-55.83-62.42,42.48,8.81,79.82,8.86,109-5C410.79,282.76,393.2,309.06,363.92,312.93Z"/><path class="cls-13" d="M363.92,312.93c-32.15,3.58-50.9-8.95-55.07-41,36.41.19,64.24,11.53,77.25,32.53A49.89,49.89,0,0,1,363.92,312.93Z"/></g></svg>